<svg width="221" height="107" viewBox="0 0 221 107" fill="none" xmlns="http://www.w3.org/2000/svg">
<path fill-rule="evenodd" clip-rule="evenodd" d="M28.3612 36.2067L50.8994 36.2086V31.9611C50.8994 31.9611 34.4526 31.9611 33.3963 31.9611C33.3963 31.0412 33.3963 24.6345 33.3963 23.7146C34.4441 23.7146 49.2365 23.7174 49.2365 23.7174V19.4C49.2365 19.4 34.4441 19.4 33.3963 19.4C33.3963 18.4978 33.3963 12.916 33.3963 12.0129C34.4498 12.0129 50.4383 12.0157 50.4383 12.0157V7.75789L28.3612 7.74579V36.2067Z" fill="black"/>
<path fill-rule="evenodd" clip-rule="evenodd" d="M73.9573 28.3951C72.1687 25.7722 59.8792 7.75417 59.8792 7.75417L54.6127 7.75137V36.2123H59.6543C59.6543 36.2123 59.6543 18.805 59.6543 15.7455C61.4401 18.3637 73.6162 36.2151 73.6162 36.2151L78.998 36.2179V7.75975H73.9583V28.3951H73.9573Z" fill="black"/>
<path fill-rule="evenodd" clip-rule="evenodd" d="M81.8618 7.76349L90.1632 36.2188H95.2115C95.2115 36.2188 100.468 18.6384 101.378 15.5863C102.289 18.6384 107.53 36.2216 107.53 36.2216H112.601L120.87 7.77094L115.336 7.76908C115.336 7.76908 110.871 24.762 110.023 27.9891C109.068 24.7834 103.998 7.76908 103.998 7.76908H98.7735C98.7735 7.76908 93.6931 24.7499 92.7379 27.9435C91.8913 24.7248 87.4279 7.76442 87.4279 7.76442H81.8618V7.76349Z" fill="black"/>
<path fill-rule="evenodd" clip-rule="evenodd" d="M152.335 22.0209V22.0237C152.316 26.3067 153.874 30.3177 156.609 33.0253C159.274 35.663 162.87 37 167.294 37C178.058 37 181.909 28.9379 181.936 22.0331C181.954 17.6049 180.412 13.5296 177.705 10.85C175.13 8.30256 171.629 7.01117 167.294 7.01117C157.051 7.00745 152.4 14.5463 152.335 22.0209ZM160.647 13.875C162.335 12.2447 164.586 11.4319 167.343 11.4626C176.152 11.5194 176.794 19.6477 176.781 22.1383C176.765 24.6037 176.039 32.6519 167.272 32.6519C164.408 32.6519 162.104 31.8074 160.428 30.1455C158.578 28.3122 157.52 25.4277 157.52 22.2193C157.52 22.1941 157.52 22.1681 157.52 22.1429C157.543 18.7929 158.682 15.7781 160.647 13.875Z" fill="black"/>
<path d="M5.04166 7.74579H0V36.2002H5.04166V7.74579Z" fill="black"/>
<path fill-rule="evenodd" clip-rule="evenodd" d="M26.0076 7.73833L19.7396 7.73553L4.99915 21.7481L19.6791 36.1797H25.9188L11.2833 21.7556L26.0076 7.73833Z" fill="#D01325"/>
<path fill-rule="evenodd" clip-rule="evenodd" d="M120.597 22.0209C120.597 22.0684 120.595 22.1168 120.595 22.1634C120.595 26.3774 122.136 30.3214 124.833 33.0011C127.5 35.6518 131.105 36.9981 135.552 36.9991C146.285 36.9963 150.135 28.9323 150.169 22.0265C150.202 17.6133 148.669 13.5389 145.963 10.8509C143.386 8.29605 139.886 7 135.552 7C125.27 7 120.631 14.5463 120.597 22.0209ZM128.867 13.875C130.554 12.2401 132.811 11.4254 135.575 11.4552C144.396 11.5231 145.025 19.6504 145.008 22.1411C144.995 24.6075 144.268 32.65 135.497 32.65C132.643 32.6482 130.345 31.8046 128.669 30.1455C126.799 28.2945 125.737 25.3765 125.753 22.1401C125.769 18.7929 126.905 15.7819 128.867 13.875Z" fill="black"/>
<path fill-rule="evenodd" clip-rule="evenodd" d="M185.125 36.2384H197.466C203.526 36.2375 210 32.5057 210 22.0414C210 17.2725 208.708 13.5799 206.158 11.0706C203.975 8.91801 200.97 7.78304 197.466 7.78304L185.125 7.77838V36.2384ZM190.164 12.2317C191.134 12.2317 197.465 12.2336 197.465 12.2336C202.102 12.2336 204.873 15.9001 204.873 22.0414C204.873 28.1409 202.102 31.7832 197.465 31.7832C197.465 31.7832 191.134 31.7832 190.164 31.7832C190.164 30.76 190.164 13.254 190.164 12.2317Z" fill="black"/>
<path d="M113.039 73.9181C112.118 73.8705 111.372 73.9078 111.16 73.0979C111.097 72.8551 111.069 72.4529 111.072 71.9246C111.084 69.4058 111.779 64.0249 112.515 59.457C112.984 56.544 114.193 50.4562 114.381 49.7986C114.912 47.9359 113.967 46.9126 111.811 47.1172C105.38 47.7273 99.0257 47.1601 95.5704 48.1327C94.1626 48.5293 93.9994 49.6764 94.1602 50.2103C94.3795 50.7791 95.2176 50.3698 96.1096 50.0057C97.5761 49.4059 99.323 49.1544 96.6391 52.6299C92.9838 57.3627 88.0178 67.6399 85.8474 73.3136C85.4167 74.4385 85.117 74.8653 83.1017 75.3001C82.1921 75.4968 80.9329 75.6943 79.1538 75.9593C77.6753 76.179 77.3627 76.8383 76.7874 78.0457L75.5861 80.7921C75.5861 80.7921 73.255 86.2246 73.1031 86.8719C72.4482 89.6659 75.4479 90.0245 75.9003 87.9524C76.0377 87.3233 76.9047 82.7293 77.2438 81.4767C77.4077 80.8722 77.8786 79.5664 79.64 79.2039C85.8731 77.9187 105.68 77.0564 111.469 77.3563C113.466 77.4602 113.298 78.1916 113.173 79.4562C112.88 82.4326 111.11 85.2909 110.537 86.3571C109.017 89.1757 111.923 89.4105 112.829 86.8188C114.173 82.976 116.087 79.0643 116.431 77.8235C117.229 75.1826 115.684 74.0554 113.039 73.9181ZM110.307 52.1222C110.091 53.5977 108.04 67.9953 107.758 71.7754C107.623 73.5826 107.093 73.9269 105.357 73.9586C101.544 74.0276 94.2606 74.4639 89.9921 74.8423C88.2701 74.9946 87.8475 74.4219 88.0765 73.132C88.9395 68.2698 94.4422 58.5931 98.4503 53.4097C99.3575 52.2364 100.66 50.6506 103.201 49.6836C104.693 49.1156 106.489 48.9363 108.087 48.991C110.191 49.0632 110.731 49.2322 110.307 52.1222Z" fill="#AA182C"/>
<path d="M163.201 71.6183C161.04 72.1506 157.746 73.1335 158.895 68.2397C159.288 66.5674 159.53 65.7566 159.53 64.2525C159.53 62.1241 157.612 62.4398 157.709 64.078C157.785 65.3497 157.703 68.2143 155.55 70.3713C153.458 72.4656 151.499 72.0039 151.349 69.4019C151.213 67.0497 152.815 63.0919 156.108 62.7976C158.137 62.6168 157.396 60.9921 155.397 61.4212C151.838 62.186 149.404 65.5234 148.863 69.451C148.759 70.2031 148.728 70.9337 148.782 71.5985C145.259 73.4247 144.678 72.2268 144.678 71.2764C144.678 70.8829 145.003 67.6296 145.253 64.5119C145.584 60.3804 143.391 59.0747 140.806 65.2069C140.312 66.3778 139.038 69.1766 138.917 69.4233C136.995 73.3342 136.889 71.1796 137.457 69.0274C137.713 68.0548 138.454 64.9078 138.576 64.3295C139.649 59.2627 137.709 57.1311 135.207 61.2586C133.447 62.8865 130.228 63.9733 128.809 63.7123C128.644 62.7778 127.789 62.2701 126.947 62.2978C126.923 62.2986 126.897 62.3026 126.872 62.3042C126.835 62.2621 126.8 62.2225 126.775 62.1908C126.244 61.1452 124.365 60.8413 122.59 61.6465C119.684 62.965 118.096 65.7931 117.482 68.2722C115.944 74.4933 121.607 77.7934 126.064 70.9988C127.104 69.4114 127.749 68.0096 128.08 65.8328C129.64 65.5742 132.303 64.5516 134.258 63.0785C132.895 66.0605 131.561 68.8814 130.445 71.2074C129.176 73.8539 126.438 79.2364 125.226 81.2189C123.736 83.6559 127.255 85.6153 128.201 82.3033C128.66 80.6969 130.656 74.0387 131.655 71.8056C132.803 69.2392 134.202 66.4294 135.589 63.9471C136.867 61.6592 137.677 62.2106 137.304 64.3604C136.977 66.2413 135.93 69.3717 135.334 71.8611C134.373 75.8744 137.059 77.5332 139.196 72.6504C139.408 72.1665 141.084 67.5844 141.976 65.7201C142.803 63.9915 143.67 63.9717 143.354 65.9922C143.149 67.2972 142.548 70.9313 142.462 71.5041C141.922 75.1057 143.808 75.331 145.188 74.805C147.19 74.0427 148.328 73.1962 148.921 72.5283C149.444 74.7376 151.254 75.6412 155.001 72.6457C155.69 72.0943 155.932 72.4822 157.459 73.5461C158.912 74.5583 161.544 73.6603 162.429 73.1629C164.703 71.8849 164.086 71.3891 163.201 71.6183ZM124.291 70.1365C121.106 73.2803 119.415 70.8544 119.928 68.0413C120.265 66.1993 121.421 64.0288 122.992 63.1229C124.366 62.3312 125.108 62.9023 125.544 62.9825C125.287 63.2926 125.127 63.702 125.156 64.2018C125.197 64.9078 125.776 65.5734 126.724 65.8011C126.395 67.3321 125.381 69.0599 124.291 70.1365Z" fill="#AA182C"/>
<path d="M73.6776 70.591C70.9199 71.1796 69.8431 71.0463 69.905 69.3145C69.9186 68.9211 70.2473 65.6662 70.3574 62.5501C70.5173 58.0346 68.4425 56.5011 65.8856 63.245C65.43 64.4461 64.8193 65.9414 64.2705 67.3273C63.4075 69.5105 62.4215 69.2146 62.8297 66.887C63.0692 65.521 63.2082 64.7721 63.5079 63.2196C64.3878 58.6534 63.9965 57.0255 62.9808 56.8637C62.076 56.7193 60.6207 57.4785 58.5122 62.3874C57.3792 65.0252 56.1498 67.7034 55.0393 70.0349C52.3835 72.3553 50.9283 70.5275 51.2931 68.1309C51.5944 66.1509 53.2731 63.8995 53.4241 61.8551C53.4804 61.0959 52.799 60.1591 51.6965 60.9865C50.1738 62.1288 48.5643 70.7314 45.0648 70.1602C43.9937 69.8619 43.9133 68.4134 44.3199 66.7117C46.0371 64.4548 47.1251 62.6651 47.4417 61.913C48.0902 60.3717 48.4469 59.3594 47.3597 59.1785C47.3348 59.1738 47.3075 59.169 47.2802 59.1658C47.2488 59.1619 47.2159 59.1587 47.1821 59.1563C47.1468 59.1532 47.1179 59.1484 47.0793 59.1468C47.0713 59.1476 47.064 59.15 47.056 59.1508C47.0255 59.15 46.9997 59.1468 46.9676 59.1468C46.9636 59.1539 46.9596 59.1611 46.9564 59.1682C46.4855 59.2666 46.0122 59.7632 45.6458 60.1059C44.6502 61.0428 42.5312 64.569 41.6851 67.7026C40.0956 69.854 38.2089 72.0324 35.9702 73.9506C34.5383 75.1778 34.3486 75.5356 34.7842 74.2719C35.0558 73.4826 35.5082 72.2125 36.0104 70.771L36.0184 70.7679C36.1566 70.3919 39.1482 62.846 38.769 60.8699C38.5279 59.6117 36.5335 59.9488 36.6693 60.9317C37.1916 64.7428 33.6029 70.4609 30.2698 69.7168C29.504 69.5049 29.3023 68.5276 29.4968 67.3472C31.8938 64.6841 33.9324 62.3644 35.386 61.1102C35.484 61.0253 35.5684 60.9405 35.6415 60.858C36.6854 59.9536 35.3957 58.9025 32.8259 59.8973C32.3197 60.1257 31.7966 60.4494 31.2799 60.8508L31.2791 60.8516C31.2783 60.8524 31.2775 60.8524 31.2775 60.8524C30.0577 61.802 28.8781 63.1934 28.0705 64.8554C27.6607 65.7026 27.3634 66.5951 27.1384 67.5058C25.6783 69.8754 23.4774 72.652 19.4685 75.6419C14.5106 79.3387 7.40475 81.0974 5.09454 76.0901C3.21504 72.0173 7.34047 65.164 11.5929 62.4826C14.6584 60.5494 16.5596 60.1789 18.9823 59.7323C21.4058 59.2856 19.6806 56.5368 18.1611 57.3793C15.7488 58.7176 15.1068 58.4463 14.1674 57.6007C10.766 54.5401 11.4812 51.8104 14.1522 50.0334C15.3422 49.2417 16.8891 48.5634 18.1394 48.2913C21.4653 47.4718 22.1925 48.987 20.6256 50.2412C18.5878 51.8722 20.178 53.9015 21.9402 51.8635C22.3693 51.3669 23.2596 50.292 23.8342 49.1663C24.9398 46.9966 24.2416 45.1308 19.1583 46.4278C17.3085 46.8998 15.3004 47.7963 13.5326 48.845C7.52047 52.5132 8.30152 56.2037 11.1356 59.0024C11.8749 59.7323 11.9553 60.4399 11.3502 60.7699C2.05391 65.8335 -1.64725 73.3191 0.674209 77.971C3.59351 83.8201 13.711 82.5714 21.0965 75.964C23.0603 74.2068 24.9656 72.264 26.7438 70.3585C26.7671 71.1653 26.9632 71.9634 27.5643 72.364C28.6016 73.0558 30.7029 72.5417 32.9272 70.7393C34.1638 69.7366 34.9931 68.998 34.5254 70.5212C34.4001 70.9305 34.29 71.2573 34.2594 71.3874C34.257 71.397 34.2538 71.4081 34.2514 71.4184L34.2144 71.4366C33.6431 73.0042 32.7206 75.4452 32.4225 76.3051C32.0031 77.5165 31.5394 77.6355 30.4611 78.4502C26.0825 81.7559 20.7839 86.3943 18.4833 90.7408C12.3337 102.358 21.9506 103.198 27.6438 92.3869C29.193 89.4446 31.0525 84.5261 32.8396 79.7845C33.251 78.6922 34.4732 76.9413 36.4628 75.185C38.2788 73.5809 39.9124 71.9174 41.3347 70.3252C41.3974 71.6024 41.9261 72.5798 43.2006 72.9122C45.0142 73.3842 46.8165 72.0491 47.8226 71.0566C48.4598 70.4275 49.195 70.6005 49.6707 71.3716C50.1464 72.1427 50.5145 73.0074 51.7744 72.913C52.5949 72.8511 53.4233 72.4092 54.1867 71.8031C53.1164 74.0014 52.2333 75.7205 51.7769 76.5264C49.6571 80.2764 52.8544 81.8471 54.0638 77.9377C54.562 76.3265 57.3961 68.4578 59.9723 62.9864C61.3367 60.0877 62.5886 60.3693 61.9844 63.107C61.7497 64.1676 61.446 65.4266 61.1688 66.7696C59.2772 75.9267 63.2877 73.6008 64.5951 70C65.3071 68.0405 66.6795 64.6087 67.0387 63.7575C67.9411 61.6156 68.7985 61.8734 68.4063 64.0296C68.1685 65.3369 67.4268 68.9687 67.3208 69.5414C66.653 73.143 68.4658 73.3548 69.9218 73.0431C74.339 72.0935 74.5415 70.4069 73.6776 70.591ZM30.351 81.8662C28.641 85.885 26.9977 89.7516 25.4726 91.98C21.4685 97.8274 17.0442 97.3165 20.3098 91.5706C22.0294 88.5442 25.7619 84.7101 29.6776 81.2728C30.9311 80.1717 30.8797 80.6246 30.351 81.8662Z" fill="#AA182C"/>
</svg>
