<svg width="425" height="54" viewBox="0 0 425 54" fill="none" xmlns="http://www.w3.org/2000/svg">
<path fill-rule="evenodd" clip-rule="evenodd" d="M28.3612 36.2067L50.8994 36.2086V31.9611C50.8994 31.9611 34.4526 31.9611 33.3963 31.9611C33.3963 31.0412 33.3963 24.6345 33.3963 23.7146C34.4441 23.7146 49.2365 23.7174 49.2365 23.7174V19.4C49.2365 19.4 34.4441 19.4 33.3963 19.4C33.3963 18.4978 33.3963 12.916 33.3963 12.0129C34.4498 12.0129 50.4384 12.0157 50.4384 12.0157V7.75789L28.3612 7.74579V36.2067Z" fill="black"/>
<path fill-rule="evenodd" clip-rule="evenodd" d="M73.9573 28.3951C72.1687 25.7722 59.8792 7.75417 59.8792 7.75417L54.6127 7.75137V36.2123H59.6543C59.6543 36.2123 59.6543 18.805 59.6543 15.7455C61.4401 18.3637 73.6162 36.2151 73.6162 36.2151L78.998 36.2179V7.75975H73.9582V28.3951H73.9573Z" fill="black"/>
<path fill-rule="evenodd" clip-rule="evenodd" d="M81.8618 7.76349L90.1632 36.2188H95.2115C95.2115 36.2188 100.468 18.6384 101.378 15.5863C102.289 18.6384 107.53 36.2216 107.53 36.2216H112.601L120.87 7.77094L115.336 7.76908C115.336 7.76908 110.871 24.762 110.023 27.9891C109.068 24.7834 103.998 7.76908 103.998 7.76908H98.7735C98.7735 7.76908 93.6931 24.7499 92.7379 27.9435C91.8913 24.7248 87.4279 7.76442 87.4279 7.76442H81.8618V7.76349Z" fill="black"/>
<path fill-rule="evenodd" clip-rule="evenodd" d="M152.335 22.0209V22.0237C152.316 26.3067 153.874 30.3177 156.609 33.0253C159.274 35.663 162.87 37 167.294 37C178.058 37 181.909 28.9379 181.936 22.0331C181.954 17.6049 180.412 13.5296 177.705 10.85C175.13 8.30256 171.629 7.01117 167.294 7.01117C157.051 7.00745 152.4 14.5463 152.335 22.0209ZM160.647 13.875C162.335 12.2447 164.586 11.4319 167.343 11.4626C176.152 11.5194 176.794 19.6477 176.781 22.1383C176.765 24.6037 176.039 32.6519 167.272 32.6519C164.408 32.6519 162.104 31.8074 160.428 30.1455C158.578 28.3122 157.52 25.4277 157.52 22.2193C157.52 22.1941 157.52 22.1681 157.52 22.1429C157.543 18.7929 158.682 15.7781 160.647 13.875Z" fill="black"/>
<path d="M5.04166 7.74579H0V36.2002H5.04166V7.74579Z" fill="black"/>
<path fill-rule="evenodd" clip-rule="evenodd" d="M26.0076 7.73833L19.7396 7.73553L4.99915 21.7481L19.6791 36.1797H25.9188L11.2833 21.7556L26.0076 7.73833Z" fill="#D01325"/>
<path fill-rule="evenodd" clip-rule="evenodd" d="M120.597 22.0209C120.597 22.0684 120.596 22.1168 120.596 22.1634C120.596 26.3774 122.137 30.3214 124.833 33.0011C127.5 35.6518 131.105 36.9981 135.552 36.9991C146.285 36.9963 150.135 28.9323 150.169 22.0265C150.202 17.6133 148.669 13.5389 145.963 10.8509C143.386 8.29605 139.886 7 135.552 7C125.27 7 120.631 14.5463 120.597 22.0209ZM128.867 13.875C130.554 12.2401 132.811 11.4254 135.575 11.4552C144.396 11.5231 145.025 19.6504 145.008 22.1411C144.995 24.6075 144.268 32.65 135.497 32.65C132.643 32.6482 130.345 31.8046 128.669 30.1455C126.799 28.2945 125.737 25.3765 125.753 22.1401C125.769 18.7929 126.905 15.7819 128.867 13.875Z" fill="black"/>
<path fill-rule="evenodd" clip-rule="evenodd" d="M185.125 36.2384H197.466C203.526 36.2375 210 32.5057 210 22.0414C210 17.2725 208.708 13.5799 206.158 11.0706C203.975 8.91801 200.97 7.78304 197.466 7.78304L185.125 7.77838V36.2384ZM190.164 12.2317C191.134 12.2317 197.465 12.2336 197.465 12.2336C202.102 12.2336 204.873 15.9001 204.873 22.0414C204.873 28.1409 202.102 31.7832 197.465 31.7832C197.465 31.7832 191.134 31.7832 190.164 31.7832C190.164 30.76 190.164 13.254 190.164 12.2317Z" fill="black"/>
<path d="M232.056 30L236.093 25.3996L239 22.4445L235.955 19.378L231.953 15H226.273L233.115 22.3332L226 30H232.056Z" fill="black"/>
<path d="M239.944 30L235.907 25.3996L233 22.4445L236.045 19.378L240.047 15H245.727L238.885 22.3332L246 30H239.944Z" fill="#C70F1F"/>
<g clip-path="url(#clip0)">
<path d="M374.039 27.9179C373.118 27.8703 372.372 27.9075 372.16 27.0976C372.097 26.8548 372.069 26.4526 372.072 25.9243C372.084 23.4056 372.779 18.0246 373.515 13.4568C373.984 10.5438 375.193 4.45597 375.381 3.79833C375.912 1.93566 374.967 0.912298 372.811 1.11697C366.38 1.72702 360.026 1.15981 356.57 2.13239C355.163 2.52905 354.999 3.67616 355.16 4.21005C355.38 4.77885 356.218 4.3695 357.11 4.00538C358.576 3.40564 360.323 3.15417 357.639 6.62962C353.984 11.3625 349.018 21.6397 346.847 27.3134C346.417 28.4383 346.117 28.865 344.102 29.2998C343.192 29.4965 341.933 29.694 340.154 29.959C338.675 30.1788 338.363 30.838 337.787 32.0454L336.586 34.7918C336.586 34.7918 334.255 40.2243 334.103 40.8717C333.448 43.6657 336.448 44.0242 336.9 41.9521C337.038 41.323 337.905 36.729 338.244 35.4764C338.408 34.8719 338.879 33.5662 340.64 33.2036C346.873 31.9185 366.68 31.0561 372.469 31.356C374.466 31.4599 374.298 32.1914 374.173 33.4559C373.88 36.4323 372.11 39.2906 371.537 40.3568C370.017 43.1754 372.923 43.4102 373.829 40.8185C375.173 36.9758 377.087 33.064 377.431 31.8233C378.229 29.1824 376.684 28.0551 374.039 27.9179ZM371.307 6.12191C371.091 7.59745 369.04 21.9951 368.758 25.7751C368.623 27.5823 368.093 27.9266 366.357 27.9583C362.544 28.0273 355.261 28.4636 350.992 28.842C349.27 28.9944 348.847 28.4216 349.076 27.1317C349.939 22.2695 355.442 12.5929 359.45 7.40943C360.358 6.23614 361.66 4.65033 364.201 3.6833C365.693 3.11529 367.489 2.93601 369.087 2.99075C371.191 3.06294 371.731 3.23191 371.307 6.12191Z" fill="#AA182C"/>
<path d="M424.201 25.6181C422.04 26.1504 418.746 27.1333 419.895 22.2394C420.288 20.5671 420.53 19.7564 420.53 18.2523C420.53 16.1238 418.612 16.4396 418.709 18.0777C418.785 19.3494 418.703 22.214 416.55 24.371C414.458 26.4653 412.499 26.0036 412.349 23.4016C412.213 21.0494 413.815 17.0917 417.108 16.7974C419.137 16.6165 418.396 14.9918 416.397 15.421C412.838 16.1857 410.404 19.5231 409.863 23.4508C409.759 24.2028 409.728 24.9334 409.782 25.5982C406.259 27.4244 405.678 26.2265 405.678 25.2762C405.678 24.8827 406.003 21.6293 406.253 18.5117C406.584 14.3802 404.391 13.0744 401.806 19.2066C401.312 20.3775 400.038 23.1763 399.917 23.423C397.995 27.334 397.889 25.1794 398.457 23.0271C398.713 22.0546 399.454 18.9075 399.576 18.3292C400.649 13.2624 398.709 11.1308 396.207 15.2583C394.447 16.8862 391.228 17.973 389.809 17.712C389.644 16.7775 388.789 16.2698 387.947 16.2976C387.923 16.2984 387.897 16.3023 387.872 16.3039C387.835 16.2619 387.8 16.2222 387.775 16.1905C387.244 15.1449 385.365 14.8411 383.59 15.6463C380.684 16.9647 379.096 19.7929 378.482 22.2719C376.944 28.493 382.607 31.7931 387.064 24.9985C388.104 23.4111 388.749 22.0093 389.08 19.8325C390.64 19.5739 393.303 18.5513 395.258 17.0782C393.895 20.0602 392.561 22.8812 391.445 25.2071C390.176 27.8536 387.438 33.2361 386.226 35.2186C384.736 37.6556 388.255 39.6151 389.201 36.303C389.66 34.6966 391.656 28.0384 392.655 25.8053C393.803 23.239 395.202 20.4291 396.589 17.9468C397.867 15.659 398.677 16.2103 398.304 18.3602C397.977 20.2411 396.93 23.3714 396.334 25.8608C395.373 29.8741 398.059 31.5329 400.196 26.6501C400.408 26.1662 402.084 21.5841 402.976 19.7199C403.803 17.9913 404.67 17.9714 404.354 19.992C404.149 21.297 403.548 24.9311 403.462 25.5038C402.922 29.1054 404.808 29.3307 406.188 28.8048C408.19 28.0424 409.328 27.1959 409.921 26.528C410.444 28.7373 412.254 29.6409 416.001 26.6454C416.69 26.094 416.932 26.482 418.459 27.5458C419.912 28.558 422.544 27.66 423.429 27.1626C425.703 25.8846 425.086 25.3888 424.201 25.6181ZM385.291 24.1362C382.106 27.28 380.415 24.8541 380.928 22.0411C381.265 20.199 382.421 18.0286 383.992 17.1226C385.366 16.3309 386.108 16.9021 386.544 16.9822C386.287 17.2924 386.127 17.7017 386.156 18.2015C386.197 18.9075 386.776 19.5731 387.724 19.8008C387.395 21.3319 386.381 23.0597 385.291 24.1362Z" fill="#AA182C"/>
<path d="M334.678 24.5907C331.92 25.1793 330.843 25.0461 330.905 23.3143C330.919 22.9208 331.247 19.6659 331.357 16.5498C331.517 12.0343 329.442 10.5009 326.886 17.2447C326.43 18.4458 325.819 19.9412 325.27 21.3271C324.407 23.5102 323.421 23.2143 323.83 20.8868C324.069 19.5207 324.208 18.7718 324.508 17.2193C325.388 12.6531 324.996 11.0252 323.981 10.8634C323.076 10.719 321.621 11.4782 319.512 16.3872C318.379 19.0249 317.15 21.7031 316.039 24.0346C313.384 26.355 311.928 24.5272 312.293 22.1307C312.594 20.1506 314.273 17.8992 314.424 15.8549C314.48 15.0957 313.799 14.1588 312.696 14.9862C311.174 16.1286 309.564 24.7311 306.065 24.1599C304.994 23.8617 304.913 22.4131 305.32 20.7115C307.037 18.4545 308.125 16.6648 308.442 15.9128C309.09 14.3714 309.447 13.3591 308.36 13.1783C308.335 13.1735 308.307 13.1687 308.28 13.1656C308.249 13.1616 308.216 13.1584 308.182 13.1561C308.147 13.1529 308.118 13.1481 308.079 13.1465C308.071 13.1473 308.064 13.1497 308.056 13.1505C308.025 13.1497 308 13.1465 307.968 13.1465C307.964 13.1537 307.96 13.1608 307.956 13.168C307.485 13.2663 307.012 13.7629 306.646 14.1056C305.65 15.0425 303.531 18.5687 302.685 21.7023C301.096 23.8537 299.209 26.0321 296.97 27.9503C295.538 29.1776 295.349 29.5353 295.784 28.2716C296.056 27.4823 296.508 26.2122 297.01 24.7708L297.018 24.7676C297.157 24.3916 300.148 16.8457 299.769 14.8696C299.528 13.6114 297.533 13.9486 297.669 14.9315C298.192 18.7425 294.603 24.4606 291.27 23.7165C290.504 23.5047 290.302 22.5273 290.497 21.3469C292.894 18.6838 294.932 16.3642 296.386 15.11C296.484 15.0251 296.568 14.9402 296.642 14.8577C297.685 13.9533 296.396 12.9022 293.826 13.897C293.32 14.1255 292.797 14.4491 292.28 14.8505L292.279 14.8513C292.278 14.8521 292.277 14.8521 292.277 14.8521C291.058 15.8017 289.878 17.1932 289.07 18.8551C288.661 19.7024 288.363 20.5948 288.138 21.5055C286.678 23.8751 284.477 26.6517 280.468 29.6416C275.511 33.3384 268.405 35.0972 266.095 30.0899C264.215 26.017 268.34 19.1637 272.593 16.4824C275.658 14.5491 277.56 14.1786 279.982 13.732C282.406 13.2854 280.681 10.5366 279.161 11.3791C276.749 12.7174 276.107 12.446 275.167 11.6004C271.766 8.53983 272.481 5.81008 275.152 4.03309C276.342 3.24138 277.889 2.5631 279.139 2.291C282.465 1.47152 283.192 2.98673 281.626 4.24093C279.588 5.87196 281.178 7.90123 282.94 5.86324C283.369 5.36663 284.26 4.29171 284.834 3.16601C285.94 0.996333 285.242 -0.869511 280.158 0.427536C278.308 0.899551 276.3 1.79598 274.533 2.84472C268.52 6.51295 269.301 10.2034 272.136 13.0022C272.875 13.732 272.955 14.4396 272.35 14.7696C263.054 19.8333 259.353 27.3189 261.674 31.9708C264.593 37.8198 274.711 36.5711 282.096 29.9637C284.06 28.2066 285.966 26.2638 287.744 24.3583C287.767 25.165 287.963 25.9631 288.564 26.3637C289.602 27.0555 291.703 26.5414 293.927 24.739C295.164 23.7363 295.993 22.9977 295.525 24.5209C295.4 24.9302 295.29 25.2571 295.259 25.3872C295.257 25.3967 295.254 25.4078 295.251 25.4181L295.214 25.4364C294.643 27.0039 293.721 29.4449 293.422 30.3048C293.003 31.5162 292.539 31.6352 291.461 32.4499C287.082 35.7556 281.784 40.394 279.483 44.7405C273.334 56.3576 282.951 57.1977 288.644 46.3866C290.193 43.4443 292.052 38.5258 293.84 33.7843C294.251 32.6919 295.473 30.9411 297.463 29.1847C299.279 27.5806 300.912 25.9171 302.335 24.3249C302.397 25.6022 302.926 26.5795 304.201 26.9119C306.014 27.3839 307.817 26.0488 308.823 25.0564C309.46 24.4273 310.195 24.6002 310.671 25.3713C311.146 26.1424 311.514 27.0071 312.774 26.9127C313.595 26.8508 314.423 26.4089 315.187 25.8029C314.116 28.0011 313.233 29.7202 312.777 30.5262C310.657 34.2761 313.854 35.8468 315.064 31.9375C315.562 30.3263 318.396 22.4575 320.972 16.9861C322.337 14.0874 323.589 14.369 322.984 17.1067C322.75 18.1673 322.446 19.4263 322.169 20.7694C320.277 29.9264 324.288 27.6005 325.595 23.9997C326.307 22.0402 327.679 18.6084 328.039 17.7572C328.941 15.6153 329.798 15.8731 329.406 18.0293C329.168 19.3367 328.427 22.9684 328.321 23.5412C327.653 27.1427 329.466 27.3546 330.922 27.0428C335.339 26.0932 335.541 24.4066 334.678 24.5907ZM291.351 35.8659C289.641 39.8847 287.998 43.7513 286.473 45.9797C282.468 51.8271 278.044 51.3162 281.31 45.5703C283.029 42.5439 286.762 38.7099 290.678 35.2725C291.931 34.1714 291.88 34.6244 291.351 35.8659Z" fill="#AA182C"/>
</g>
<defs>
<clipPath id="clip0">
<rect width="164" height="54" fill="white" transform="translate(261)"/>
</clipPath>
</defs>
</svg>
