<svg width="35" height="35" viewBox="0 0 35 35" fill="none" xmlns="http://www.w3.org/2000/svg">
<circle cx="17.5" cy="17.5" r="17.25" stroke="#BDBDBD" stroke-width="0.5"/>
<path d="M9.05588 16.3671C8.80868 16.3671 8.44911 16.3671 8.24686 16.3671C8.04461 16.3671 7.95472 16.5711 8.02213 16.7978L8.47159 18.1806C8.56148 18.4299 8.7862 18.6113 8.96599 18.6113C9.14577 18.6113 9.37049 18.8153 9.43791 19.042L11.3256 25.185C11.393 25.4344 11.6627 25.6157 11.9099 25.6157H24.1126C24.3598 25.6157 24.6294 25.4117 24.6969 25.185L26.5846 19.042C26.652 18.7926 26.8767 18.6113 27.0565 18.6113C27.2363 18.6113 27.461 18.4073 27.5284 18.1806L27.9779 16.7978C28.0453 16.5711 27.9554 16.3671 27.7531 16.3671C27.5509 16.3671 27.1913 16.3671 26.9441 16.3671H9.05588ZM14.3594 23.7569C14.3594 24.0063 14.1572 24.2103 13.91 24.2103H13.3931C13.1459 24.2103 12.8987 24.0063 12.8538 23.7569L11.9549 19.314C11.9099 19.0646 12.0672 18.8606 12.3144 18.8606H13.9324C14.1796 18.8606 14.3819 19.0646 14.3819 19.314V23.7569H14.3594ZM18.7416 23.7569C18.7191 24.0063 18.4944 24.2103 18.2472 24.2103H17.7303C17.4831 24.2103 17.2584 24.0063 17.2359 23.7569L16.8764 19.3366C16.8539 19.0873 17.0337 18.8833 17.2809 18.8833H18.6742C18.9214 18.8833 19.1012 19.0873 19.0787 19.3366L18.7416 23.7569ZM23.1687 23.7569C23.1238 24.0063 22.8766 24.2103 22.6294 24.2103H22.1125C21.8653 24.2103 21.663 24.0063 21.663 23.7569V19.3366C21.663 19.0873 21.8653 18.8833 22.1125 18.8833H23.7305C23.9777 18.8833 24.135 19.0873 24.0901 19.3366L23.1687 23.7569Z" fill="#4F4F4F"/>
<path d="M18.6966 15.0297C18.6966 15.4151 18.382 15.7551 18 15.7551C17.618 15.7551 17.3033 15.4377 17.3033 15.0297V9.72538C17.3033 9.34002 17.618 9 18 9C18.382 9 18.6966 9.31735 18.6966 9.72538V15.0297Z" fill="#4F4F4F"/>
</svg>
