<svg width="45" height="45" viewBox="0 0 45 45" fill="none" xmlns="http://www.w3.org/2000/svg">
<path d="M22.8257 22.6202C26.6091 22.6202 29.6358 19.5935 29.6358 15.8101C29.6358 12.0267 26.6091 9 22.8257 9C19.0423 9 16.0156 12.0267 16.0156 15.8101C16.0156 19.5353 19.0423 22.6202 22.8257 22.6202ZM22.8257 9.58206C26.2598 9.58206 29.0537 12.3759 29.0537 15.8101C29.0537 19.2442 26.2598 22.0381 22.8257 22.0381C19.3916 22.0381 16.5977 19.2442 16.5977 15.8101C16.5977 12.3759 19.3916 9.58206 22.8257 9.58206Z" fill="#BDBDBD"/>
<path d="M23.0003 22.853C28.3552 22.853 33.0117 27.2766 34.4086 33.6211C34.6059 33.6211 34.8027 33.6211 35 33.6211C34.9971 33.5821 34.9983 33.5442 34.9907 33.5046C33.5937 27.0438 28.7627 22.2709 23.0003 22.2709C17.2379 22.2709 12.4068 27.0438 11.0099 33.5046C11.0017 33.5431 11.0023 33.5821 11 33.6211C11.2014 33.6211 11.3964 33.6211 11.592 33.6211C12.9889 27.2766 17.6454 22.853 23.0003 22.853Z" fill="#BDBDBD"/>
<circle cx="22.5" cy="22.5" r="22.25" stroke="#BDBDBD" stroke-width="0.5"/>
</svg>
