<svg width="20" height="20" viewBox="0 0 20 20" fill="none" xmlns="http://www.w3.org/2000/svg">
<path fill-rule="evenodd" clip-rule="evenodd" d="M17.4553 0.92363C18.0498 0.346651 18.9994 0.360825 19.5764 0.955288C20.1534 1.54975 20.1392 2.49939 19.5447 3.07637L12.1537 10.25L19.5447 17.4236C20.1392 18.0006 20.1534 18.9503 19.5764 19.5447C18.9994 20.1392 18.0498 20.1534 17.4553 19.5764L10 12.3404L2.54471 19.5764C1.95025 20.1534 1.00061 20.1392 0.423631 19.5447C-0.153349 18.9503 -0.139176 18.0006 0.455288 17.4236L7.8463 10.25L0.455289 3.07637C-0.139175 2.49939 -0.153349 1.54975 0.42363 0.955288C1.00061 0.360825 1.95025 0.346651 2.54471 0.92363L10 8.15964L17.4553 0.92363Z" fill="#BDBDBD"/>
</svg>
