<svg width="40" height="40" viewBox="0 0 40 40" fill="none" xmlns="http://www.w3.org/2000/svg">
<g clip-path="url(#clip0)">
<path d="M20.1699 13.868C23.2475 14.337 25.6627 16.7523 26.1316 19.8298C26.1674 20.0726 26.3932 20.2404 26.636 20.2046C26.8787 20.1689 27.0465 19.9431 27.0108 19.7003C26.483 16.2357 23.7639 13.5166 20.2993 12.9889C20.0565 12.9532 19.8308 13.121 19.795 13.3638C19.7593 13.6065 19.9272 13.8323 20.1699 13.868Z" fill="#BDBDBD"/>
<path d="M20.6306 10.8861C25.0868 11.397 28.6025 14.9128 29.1133 19.3691C29.138 19.5942 29.328 19.7647 29.5544 19.765C29.5708 19.765 29.5872 19.7641 29.6035 19.7624C29.8474 19.7356 30.0235 19.5162 29.9968 19.2723C29.4385 14.4028 25.5968 10.561 20.7273 10.0026C20.4834 9.97595 20.2639 10.152 20.2372 10.396C20.2105 10.64 20.3866 10.8594 20.6306 10.8861Z" fill="#BDBDBD"/>
<path d="M28.4482 24.0916C27.7007 23.3135 26.1768 21.9936 25.2065 21.9813H25.1922C24.3368 21.9813 23.3928 22.9565 22.7258 23.8183C21.2104 22.5941 17.4066 18.7903 16.1818 17.2742C17.0484 16.6036 18.0297 15.653 18.0188 14.7933C18.0065 13.8227 16.686 12.2986 15.9078 11.551C15.294 10.9614 14.1356 9.98152 13.2085 10.0009C12.2732 10.0264 10.6536 11.3694 10.2715 12.4365C9.00705 15.9669 12.3888 21.0501 15.6691 24.3304C18.4668 27.1283 22.5761 30.0003 25.9151 30.0001C26.4762 30.0054 27.0339 29.9136 27.5636 29.7287C28.6304 29.3464 29.9734 27.727 29.999 26.7917C30.0242 25.8729 29.0381 24.7056 28.4482 24.0916ZM27.264 28.8921C24.3246 29.9443 19.6388 27.0436 16.2974 23.702C12.9562 20.3607 10.0559 15.6742 11.1081 12.7361C11.3993 11.9232 12.7444 10.9025 13.2328 10.8892L13.2448 10.8891C13.5665 10.8891 14.2897 11.2287 15.2922 12.192C16.3851 13.2418 17.1249 14.3905 17.1301 14.8046C17.1342 15.1185 16.6465 15.8078 15.5483 16.64C15.2096 16.8959 15.1424 17.3779 15.3983 17.7166C15.4014 17.7207 15.4045 17.7248 15.4077 17.7288C16.6214 19.274 20.7265 23.3794 22.2713 24.5924C22.6046 24.855 23.0877 24.7977 23.3503 24.4643C23.3535 24.4603 23.3567 24.4562 23.3598 24.4521C24.189 23.3581 24.8759 22.8699 25.1914 22.8699C25.6092 22.8752 26.7576 23.6148 27.8073 24.7073C28.7832 25.723 29.1192 26.4518 29.1108 26.7674C29.0973 27.2556 28.0767 28.6008 27.264 28.8921Z" fill="#BDBDBD"/>
</g>
<circle cx="20" cy="20" r="19.75" stroke="#BDBDBD" stroke-width="0.5"/>
<defs>
<clipPath id="clip0">
<rect width="20" height="20" fill="white" transform="translate(10 10)"/>
</clipPath>
</defs>
</svg>
